Motion_pl08
version=1
nRows=5
nColumns=43
inDegrees=yes
endheader
time	pelvis_tilt	pelvis_list	pelvis_rotation	pelvis_tx	pelvis_ty	pelvis_tz	hip_flexion_r	hip_adduction_r	hip_rotation_r	knee_angle_r	ankle_angle_r	subtalar_angle_r	mtp_angle_r	hip_flexion_l	hip_adduction_l	hip_rotation_l	knee_angle_l	ankle_angle_l	subtalar_angle_l	mtp_angle_l	lumbar_extension	lumbar_bending	lumbar_rotation	neck_flexion	neck_lateral_bending	neck_rotation	arm_flex_r	arm_add_r	arm_rot_r	elbow_flex_r	pro_sup_r	wrist_flex_r	wrist_dev_r	hand_finger_flex_r	arm_flex_l	arm_add_l	arm_rot_l	elbow_flex_l	pro_sup_l	wrist_flex_l	wrist_dev_l	hand_finger_flex_l
      2.98750000	      1.13870464	     19.16869778	     88.31272521	     -0.02345384	      0.97659329	      0.20685855	    -23.30641864	     -1.02854617	    -13.75074417	     -6.42914321	    -13.09625664	      5.77093512	     28.91958408	    -24.48349802	     -0.15180956	    -17.81324112	     -4.74173234	     -9.53591983	     -1.42567820	     30.62521705	    -53.57206098	     -0.16582341	     -0.50113913	    -18.21060454	     -0.47005597	      0.03303613	      1.26181315	    -12.73969904	     -3.67145879	     31.37214878	    127.54339369	    -10.83472536	      5.32769256	     30.90174411	     -4.05304136	     -9.94220050	    -19.75714076	     37.20813407	    146.71219543	     -5.05519230	     10.84159046	     73.66242069
      2.99000000	      1.17969632	     19.76451866	     88.22753353	     -0.02346569	      0.97716104	      0.20550764	    -24.34348714	     -1.00940678	    -13.96874990	     -5.81593380	    -13.35895449	      6.36946469	     29.12390678	    -25.69005882	     -0.01028853	    -18.07304805	     -3.74105994	    -10.07805136	     -1.06799062	     30.57824331	    -53.94021432	     -0.16612282	     -0.33292875	    -18.17486343	     -0.50180536	     -0.09104664	      1.34788891	    -12.83813900	     -3.21675620	     31.43891472	    127.72390993	    -12.39835002	      4.97772168	     30.37378686	     -3.85814300	     -9.99781345	    -19.21846177	     37.41967870	    146.31708720	     -5.39488514	     10.82220936	     73.30799634
      2.99250000	      1.17428964	     19.76427299	     88.21921782	     -0.02340943	      0.97702539	      0.20527699	    -24.39696752	     -1.01204218	    -14.00202899	     -5.74820524	    -13.32804031	      6.37172550	     29.13348498	    -25.75039481	      0.00012677	    -18.09393563	     -3.67256604	    -10.03858151	     -1.06209147	     30.58331306	    -53.81667749	     -0.16540221	     -0.33318863	    -18.21379199	     -0.50406163	     -0.08752537	      1.67644096	    -12.85890022	     -3.22234819	     31.59932670	    127.71330480	    -12.43305508	      4.94483103	     30.36990025	     -3.51602518	     -9.97908436	    -19.19538691	     37.60588500	    146.29081799	     -5.41896765	     10.79944722	     73.30156552
      2.99500000	      1.16518794	     19.76273344	     88.21901631	     -0.02342975	      0.97688232	      0.20505575	    -24.45693122	     -1.01527758	    -14.02762054	     -5.66314395	    -13.29612957	      6.37876259	     29.14368580	    -25.82212912	      0.02161474	    -18.10392601	     -3.56901445	    -10.00098036	     -1.04698208	     30.58853011	    -53.69412286	     -0.15184413	     -0.31923230	    -18.24421544	     -0.50854302	     -0.08435130	      2.00694423	    -12.90011711	     -3.22656213	     31.75371736	    127.71217894	    -12.48897041	      4.91147954	     30.35551863	     -3.16880443	     -9.94971450	    -19.16831049	     37.80432413	    146.25999446	     -5.44521737	     10.77317637	     73.29496126
      2.99750000	      1.15552812	     19.76210376	     88.22241918	     -0.02347117	      0.97672834	      0.20480821	    -24.52542050	     -1.01733238	    -14.04648614	     -5.56568503	    -13.26414646	      6.39014697	     29.15441731	    -25.90802157	      0.04464781	    -18.10251616	     -3.43839658	     -9.96720659	     -1.02257604	     30.59373613	    -53.57171478	     -0.13394190	     -0.29756704	    -18.26645657	     -0.51534390	     -0.08374471	      2.33241981	    -12.94102065	     -3.22515704	     31.90413591	    127.71929191	    -12.56460159	      4.87635718	     30.33117438	     -2.81920784	     -9.91124209	    -19.13721318	     38.01167022	    146.22410696	     -5.47401846	     10.74327749	     73.28785901
